<svg width="79" height="79" viewBox="0 0 79 79" fill="none" xmlns="http://www.w3.org/2000/svg">
<g id="9004835_bag_shopping_shop_store_icon 1" clip-path="url(#clip0_5_3)">
<g id="Icons">
<path id="Vector" d="M61.225 75.7083H17.775C16.3746 75.7097 14.9899 75.4131 13.7128 74.8384C12.4357 74.2637 11.2955 73.4239 10.3678 72.3748C9.44016 71.3257 8.74622 70.0913 8.33209 68.7535C7.91796 67.4157 7.79312 66.0051 7.96584 64.6154L9.24959 54.3125L12.0804 31.6987C12.3844 29.3102 13.5477 27.1142 15.3529 25.521C17.1582 23.9277 19.4818 23.0464 21.8896 23.0417H57.1104C59.5182 23.0464 61.8418 23.9277 63.6471 25.521C65.4523 27.1142 66.6156 29.3102 66.9196 31.6987L69.7504 54.3125L71.0342 64.6154C71.2069 66.0051 71.082 67.4157 70.6679 68.7535C70.2538 70.0913 69.5598 71.3257 68.6322 72.3748C67.7045 73.4239 66.5643 74.2637 65.2872 74.8384C64.0101 75.4131 62.6254 75.7097 61.225 75.7083Z" fill="#F19B5F"/>
<path id="Vector_2" d="M69.7504 54.3125C68.8921 55.8152 67.6511 57.0637 66.1536 57.931C64.6561 58.7983 62.9555 59.2534 61.225 59.25H17.775C16.0445 59.2534 14.3439 58.7983 12.8464 57.931C11.3489 57.0637 10.1079 55.8152 9.24957 54.3125L12.0804 31.6987C12.3844 29.3102 13.5477 27.1142 15.3529 25.521C17.1582 23.9277 19.4818 23.0464 21.8896 23.0417H57.1104C59.5182 23.0464 61.8418 23.9277 63.647 25.521C65.4523 27.1142 66.6156 29.3102 66.9196 31.6987L69.7504 54.3125Z" fill="#FFCE69"/>
</g>
<g id="Layer 4">
<path id="Vector_3" d="M17.775 79H61.225C63.0929 78.9997 64.9393 78.602 66.6416 77.8333C68.344 77.0646 69.8633 75.9425 71.0986 74.5415C72.334 73.1405 73.2571 71.4927 73.8067 69.7075C74.3563 67.9224 74.5198 66.0407 74.2863 64.1875L70.1718 31.2708C69.7677 28.0919 68.2196 25.169 65.8169 23.0486C63.4142 20.9283 60.3215 19.7556 57.117 19.75H55.9583V16.4583C55.9583 12.0933 54.2243 7.90707 51.1378 4.82053C48.0513 1.734 43.865 0 39.5 0C35.135 0 30.9487 1.734 27.8622 4.82053C24.7757 7.90707 23.0417 12.0933 23.0417 16.4583V19.75H21.883C18.6774 19.754 15.583 20.9259 13.179 23.0465C10.7749 25.167 9.22588 28.0908 8.82168 31.2708L4.70709 64.1875C4.47354 66.0413 4.6372 67.9235 5.18719 69.7091C5.73718 71.4947 6.66091 73.1429 7.89698 74.544C9.13306 75.9451 10.6532 77.067 12.3563 77.8353C14.0594 78.6036 15.9066 79.0006 17.775 79ZM29.625 16.4583C29.625 13.8393 30.6654 11.3276 32.5173 9.47565C34.3692 7.62373 36.881 6.58333 39.5 6.58333C42.119 6.58333 44.6308 7.62373 46.4827 9.47565C48.3346 11.3276 49.375 13.8393 49.375 16.4583V19.75H29.625V16.4583ZM11.2378 65.017L15.3523 32.1003C15.5513 30.5084 16.3247 29.0439 17.5272 27.982C18.7298 26.92 20.2787 26.3338 21.883 26.3333H23.0417V32.9167C23.0417 33.7897 23.3885 34.6269 24.0058 35.2442C24.6231 35.8615 25.4603 36.2083 26.3333 36.2083C27.2063 36.2083 28.0436 35.8615 28.6609 35.2442C29.2782 34.6269 29.625 33.7897 29.625 32.9167V26.3333H49.375V32.9167C49.375 33.7897 49.7218 34.6269 50.3391 35.2442C50.9564 35.8615 51.7937 36.2083 52.6667 36.2083C53.5397 36.2083 54.3769 35.8615 54.9942 35.2442C55.6115 34.6269 55.9583 33.7897 55.9583 32.9167V26.3333H57.117C58.7213 26.3338 60.2702 26.92 61.4728 27.982C62.6753 29.0439 63.4487 30.5084 63.6477 32.1003L67.7623 65.017C67.8781 65.9437 67.7954 66.8843 67.5197 67.7766C67.2441 68.6688 66.7818 69.4922 66.1635 70.1921C65.5452 70.8919 64.7851 71.4522 63.9336 71.8358C63.0822 72.2193 62.1589 72.4173 61.225 72.4167H17.775C16.8417 72.4164 15.9191 72.2177 15.0685 71.8337C14.2178 71.4498 13.4585 70.8893 12.8409 70.1896C12.2234 69.4898 11.7616 68.6668 11.4864 67.775C11.2111 66.8832 11.1286 65.9431 11.2443 65.017H11.2378Z" fill="#6C2E7C"/>
</g>
</g>
<defs>
<clipPath id="clip0_5_3">
<rect width="79" height="79" fill="white"/>
</clipPath>
</defs>
</svg>
